<svg width="620" height="520" viewBox="0 0 620 520" fill="none" xmlns="http://www.w3.org/2000/svg">
  <rect width="620" height="520" rx="36" fill="url(#bg)"/>
  <path d="M377 84c0 11-9 20-20 20s-20-9-20-20 9-20 20-20 20 9 20 20Z" fill="#F2BC56"/>
  <path d="M70 437c64-43 147-54 218-46 36 4 70 14 107 10 63-8 95-40 142-37 34 3 58 20 83 48V484H36v-47c13 0 22 2 34 0Z" fill="#DDEBE9"/>
  <path d="M289 118c0 0 44-41 113-27 55 11 84 41 112 89v158H205V188c22-38 48-57 84-70Z" fill="#F1F6FA"/>
  <path d="M430 188h86v150h-86V188Z" fill="#F8F6F2" stroke="#24456F" stroke-width="4"/>
  <path d="M439 200h68" stroke="#24456F" stroke-width="4"/>
  <path d="M473 188v-16" stroke="#24456F" stroke-width="4"/>
  <path d="M464 172h18" stroke="#24456F" stroke-width="4"/>
  <path d="M460 226h14v18h-14V226Zm22 0h14v18h-14V226Zm-22 28h14v18h-14V254Zm22 0h14v18h-14V254Zm-22 28h14v18h-14V282Zm22 0h14v18h-14V282Z" fill="#F7D48D"/>
  <path d="M463 338v-28c0-8 6-14 14-14h0c8 0 14 6 14 14v28" stroke="#24456F" stroke-width="4"/>
  <path d="M526 214h44v124h-44V214Z" fill="#D8E4ED"/>
  <path d="M537 228h8v10h-8V228Zm14 0h8v10h-8V228Zm-14 18h8v10h-8V246Zm14 0h8v10h-8V246Zm-14 18h8v10h-8V264Zm14 0h8v10h-8V264Zm-14 18h8v10h-8V282Zm14 0h8v10h-8V282Z" fill="#B8CADC"/>
  <path d="M281 214h76v124h-76V214Z" fill="#DCE7EF"/>
  <path d="M296 228h11v11h-11V228Zm18 0h11v11h-11V228Zm18 0h11v11h-11V228Zm-36 19h11v11h-11V247Zm18 0h11v11h-11V247Zm18 0h11v11h-11V247Zm-36 19h11v11h-11V266Zm18 0h11v11h-11V266Zm18 0h11v11h-11V266Z" fill="#B8CADC"/>
  <path d="M161 241h140v109H161V241Z" fill="#FAF7F2" stroke="#24456F" stroke-width="4"/>
  <path d="M152 241 231 185l81 56" fill="#0B3B78"/>
  <path d="M152 241 231 185l81 56" stroke="#0B3B78" stroke-width="4" stroke-linejoin="round"/>
  <path d="M239 306h28v44h-28V306Z" fill="#F26D5B" stroke="#24456F" stroke-width="4"/>
  <path d="M178 272h24v22h-24V272Zm82 0h24v22h-24V272Z" fill="#D9E6EF" stroke="#24456F" stroke-width="4"/>
  <path d="M162 268h-34v82h34" fill="#FAF7F2"/>
  <path d="M162 268h-34v82h34" stroke="#24456F" stroke-width="4"/>
  <path d="M132 292h25v58h-25V292Z" fill="#F26D5B"/>
  <path d="M78 334c0-20 16-36 36-36 20 0 36 16 36 36v16H78v-16Z" fill="#71C9A4"/>
  <rect x="107" y="250" width="8" height="100" fill="#32577E"/>
  <path d="M83 299c0-20 16-36 36-36 20 0 36 16 36 36" fill="#71C9A4"/>
  <path d="M352 332c0-24 18-43 40-43 22 0 40 19 40 43v18h-80v-18Z" fill="#71C9A4"/>
  <rect x="389" y="246" width="8" height="104" fill="#32577E"/>
  <path d="M356 298c0-24 18-43 40-43 22 0 40 19 40 43" fill="#71C9A4"/>
  <path d="M585 334c0-18 14-32 32-32 1 0 2 0 3 0v48h-67v-16c0-18 14-32 32-32Z" fill="#71C9A4"/>
  <rect x="586" y="281" width="7" height="69" fill="#32577E"/>
  <path d="M545 387c46-5 126-5 156 2" stroke="#C8D8DF" stroke-width="4" stroke-linecap="round"/>
  <path d="M117 398c110 10 217 10 322 0" stroke="#C8D8DF" stroke-width="4" stroke-linecap="round"/>
  <path d="M375 147c5-7 11-11 18-13 8 2 14 6 18 13-5 3-11 5-18 5s-13-2-18-5Z" fill="#3AB5A3" opacity=".85"/>
  <path d="M542 76h42l19-14h11l-12 14 12 14h-11l-19-14h-42l-4-7 4-7Z" fill="#8BA7C0"/>
  <path d="M594 81c16 0 26 8 30 14" stroke="#C7D7E7" stroke-width="3" stroke-dasharray="6 6" stroke-linecap="round"/>
  <g transform="translate(350 182)">
    <ellipse cx="108" cy="265" rx="112" ry="18" fill="#D1E2E0"/>
    <ellipse cx="55" cy="252" rx="33" ry="12" fill="#D1E2E0"/>
    <path d="M42 141c17 0 30 14 30 31v92h-22v-65h-18v65H10v-92c0-17 14-31 32-31Z" fill="#2A5E8E"/>
    <circle cx="42" cy="114" r="18" fill="#F1C9A2"/>
    <path d="M26 111c0-18 11-29 25-29 9 0 20 5 22 18l2 11H26Z" fill="#163965"/>
    <path d="M80 161c20 0 37 16 37 37v66h-24v-57H74v57H50v-66c0-21 9-37 30-37Z" fill="#F36F62"/>
    <circle cx="83" cy="133" r="19" fill="#F1C9A2"/>
    <path d="M67 124c1-15 10-24 22-24 13 0 24 9 24 27v8c-18-2-32-9-46-11Z" fill="#163965"/>
    <rect x="128" y="173" width="38" height="85" rx="7" fill="#1B5D8F"/>
    <rect x="176" y="182" width="32" height="76" rx="7" fill="#74C3A2"/>
    <rect x="134" y="178" width="26" height="56" rx="4" fill="#285B88" opacity=".45"/>
    <rect x="182" y="188" width="20" height="44" rx="4" fill="#4CAA84" opacity=".35"/>
    <path d="M136 173v-10c0-7 5-12 12-12h0c7 0 12 5 12 12v10" stroke="#24517B" stroke-width="4"/>
    <path d="M182 182v-8c0-6 4-10 10-10h0c6 0 10 4 10 10v8" stroke="#3B6B8C" stroke-width="4"/>
    <path d="M14 252c0-15 12-27 27-27 15 0 27 12 27 27s-12 11-27 11-27 4-27-11Z" fill="#E3A42E"/>
    <circle cx="63" cy="246" r="3" fill="#24456F"/>
  </g>
  <defs>
    <linearGradient id="bg" x1="310" y1="0" x2="310" y2="520" gradientUnits="userSpaceOnUse">
      <stop stop-color="#F4F9FC"/>
      <stop offset="1" stop-color="#EDF8F6"/>
    </linearGradient>
  </defs>
</svg>
