<svg width="560" height="330" viewBox="0 0 560 330" fill="none" xmlns="http://www.w3.org/2000/svg">
  <rect width="560" height="330" rx="28" fill="url(#a)"/>
  <path d="M30 280c65 8 162 8 290 0 53-3 106-3 210 0v30H30v-30Z" fill="#E5F0EE"/>
  <path d="M98 110h190c52 0 95 42 95 95v20H62v-20c0-52 42-95 95-95Z" fill="#EFF5F8" opacity=".9"/>
  <path d="M64 92c0-15 12-27 27-27 15 0 27 12 27 27" fill="#DEE9F2"/>
  <path d="M144 76c0-12 10-22 22-22 12 0 22 10 22 22" fill="#DEE9F2"/>
  <path d="M345 93c0-16 13-29 29-29 16 0 29 13 29 29" fill="#DEE9F2"/>
  <path d="M60 233h152" stroke="#C7D8E5" stroke-width="4" stroke-linecap="round"/>
  <g transform="translate(52 152)">
    <rect x="40" y="10" width="130" height="77" rx="6" fill="#FAF7F2" stroke="#24456F" stroke-width="4"/>
    <rect x="0" y="34" width="52" height="53" rx="6" fill="#FAF7F2" stroke="#24456F" stroke-width="4"/>
    <path d="M16 48h20l9 13v26H6V59l10-11Z" fill="#DCE7EF" stroke="#24456F" stroke-width="4"/>
    <circle cx="36" cy="94" r="16" fill="#24456F"/>
    <circle cx="36" cy="94" r="8" fill="#CAD7E3"/>
    <circle cx="136" cy="94" r="16" fill="#24456F"/>
    <circle cx="136" cy="94" r="8" fill="#CAD7E3"/>
    <path d="M70 36h70v42H70V36Z" fill="#0B3B78"/>
    <rect x="84" y="54" width="20" height="24" fill="#264E7B"/>
    <path d="M87 18h28" stroke="#0B3B78" stroke-width="7" stroke-linecap="round"/>
    <path d="M96 18v16" stroke="#0B3B78" stroke-width="7" stroke-linecap="round"/>
    <path d="M99 49h13l10-9h8l-8 9 8 9h-8l-10-9H99l-3-4 3-5Z" fill="#3AB5A3"/>
    <rect x="145" y="44" width="12" height="14" fill="#E2A530"/>
    <rect x="145" y="60" width="16" height="18" fill="#E9B445"/>
  </g>
  <g transform="translate(286 96)">
    <path d="M22 65 104 10l84 55" stroke="#29507C" stroke-width="5" stroke-linejoin="round"/>
    <path d="M34 66h144v126H34V66Z" fill="#FAF8F3" stroke="#29507C" stroke-width="5"/>
    <path d="M91 127h30v65H91v-65Z" fill="#F26D5B" stroke="#29507C" stroke-width="5"/>
    <path d="M57 95h23v22H57V95Zm74 0h23v22h-23V95Z" fill="#DCE7EF" stroke="#29507C" stroke-width="5"/>
    <path d="M14 192V94" stroke="#29507C" stroke-width="5"/>
    <path d="M4 192h20" stroke="#29507C" stroke-width="5"/>
    <path d="M18 102c-20 0-36 16-36 36 0 0 17 0 36 0s36 0 36 0c0-20-16-36-36-36Z" fill="#74C3A2"/>
    <rect x="216" y="149" width="18" height="43" rx="2" fill="#24456F"/>
    <path d="M226 112h0c15 0 28 13 28 28v9h-56v-9c0-15 13-28 28-28Z" fill="#74C3A2"/>
    <rect x="189" y="188" width="34" height="34" fill="#DDA54A"/>
    <rect x="224" y="200" width="28" height="22" fill="#EABA63"/>
    <rect x="254" y="209" width="22" height="13" fill="#F2CA80"/>
    <rect x="189" y="188" width="34" height="34" stroke="#B68433" stroke-width="3"/>
    <rect x="224" y="200" width="28" height="22" stroke="#B68433" stroke-width="3"/>
    <rect x="254" y="209" width="22" height="13" stroke="#B68433" stroke-width="3"/>
    <path d="M238 188V209" stroke="#C28C34" stroke-width="3"/>
    <path d="M206 188V222" stroke="#C28C34" stroke-width="3"/>
    <path d="M190 205h32" stroke="#C28C34" stroke-width="3"/>
    <path d="M264 178c0-12 10-22 22-22" stroke="#7AAE95" stroke-width="4" stroke-linecap="round"/>
    <path d="M272 178h16" stroke="#7AAE95" stroke-width="4" stroke-linecap="round"/>
  </g>
  <defs>
    <linearGradient id="a" x1="280" y1="0" x2="280" y2="330" gradientUnits="userSpaceOnUse">
      <stop stop-color="#F7FBFD"/>
      <stop offset="1" stop-color="#EEF7F6"/>
    </linearGradient>
  </defs>
</svg>
