<svg width="220" height="64" viewBox="0 0 220 64" fill="none" xmlns="http://www.w3.org/2000/svg">
  <rect x="2" y="6" width="48" height="48" rx="14" fill="url(#a)"/>
  <path d="M15 19h16.7c8.6 0 14.1 4 14.1 11.4 0 5.2-2.9 8.8-7.6 10.5L51 53H38.3L28 42.7h-2.5V53H15V19Zm10.5 8.2v8.1h5.4c3.3 0 5.2-1.5 5.2-4.1 0-2.7-1.9-4-5.2-4h-5.4Z" fill="#0B3B78"/>
  <path d="M12 19L2 29.5V53H12V19Z" fill="#3AB5A3" opacity=".96"/>
  <path d="M61 20h64" stroke="transparent"/>
  <path d="M66.7 39V21h13.6c9.8 0 15.7 6.4 15.7 15.8S90.1 53 80.3 53H66.7V39Zm9.9 5.7h3.1c4.2 0 6.9-3 6.9-7.9s-2.7-7.8-6.9-7.8h-3.1v15.7Z" fill="#0B3B78"/>
  <path d="M99.4 21h27.7v7.6h-17.8v5.5h15.7v7.2h-15.7v4.2h18.2V53H99.4V21Z" fill="#0B3B78"/>
  <path d="M131.1 21h10v24.1h15.5V53h-25.5V21Z" fill="#0B3B78"/>
  <path d="M157.8 37c0-9.7 7.7-16.8 18.2-16.8 10.5 0 18.2 7.1 18.2 16.8 0 9.7-7.7 16.8-18.2 16.8-10.5 0-18.2-7.1-18.2-16.8Zm26.2 0c0-4.6-3.3-8-8-8-4.8 0-8.1 3.4-8.1 8 0 4.6 3.3 8 8.1 8 4.7 0 8-3.4 8-8Z" fill="#0B3B78"/>
  <path d="M69 60h84" stroke="transparent"/>
  <path d="M66 58.5h88" stroke="transparent"/>
  <text x="67" y="60" fill="#6A7E96" font-family="Inter, Arial, sans-serif" font-size="11" letter-spacing="3.2">INSURANCE</text>
  <defs>
    <linearGradient id="a" x1="2" y1="6" x2="50" y2="54" gradientUnits="userSpaceOnUse">
      <stop stop-color="#E7F7F4"/>
      <stop offset="1" stop-color="#EEF4FB"/>
    </linearGradient>
  </defs>
</svg>
